<?xml version="1.0" standalone="no"?>
<!DOCTYPE svg PUBLIC "-//W3C//DTD SVG 20010904//EN"
 "http://www.w3.org/TR/2001/REC-SVG-20010904/DTD/svg10.dtd">
<svg version="1.0" xmlns="http://www.w3.org/2000/svg"
 width="848.000000pt" height="848.000000pt" viewBox="0 0 848.000000 848.000000"
 preserveAspectRatio="xMidYMid meet">
<metadata>
Created by potrace 1.14, written by Peter Selinger 2001-2017
</metadata>
<g transform="translate(0.000000,848.000000) scale(0.100000,-0.100000)"
fill="#000000" stroke="none">
<path d="M1800 7270 c-19 -3 -387 -5 -817 -4 l-783 0 -1 -25 c-1 -51 -7 -178
-13 -321 -10 -223 -16 -344 -22 -480 -3 -69 -7 -161 -9 -205 -2 -44 -5 -118
-6 -165 l-3 -85 199 -1 c110 -1 205 3 211 7 6 5 15 33 19 62 5 28 9 54 10 57
0 3 4 27 9 53 4 27 9 59 12 70 2 12 7 38 10 57 2 19 8 49 11 65 3 17 7 39 9
50 2 11 6 34 9 50 4 17 8 44 10 60 3 26 22 137 42 240 3 17 7 39 8 50 8 52 17
90 21 95 10 10 1085 6 1092 -4 3 -5 8 -114 10 -240 7 -302 7 -3416 0 -3655 -4
-172 -6 -185 -24 -187 -23 -4 -124 -14 -279 -29 -27 -3 -67 -8 -88 -11 -22 -3
-67 -7 -100 -10 -116 -9 -182 -16 -217 -23 l-35 -7 -1 -129 c-1 -72 0 -137 2
-146 4 -15 94 -17 1092 -15 l1087 1 0 143 c1 78 -2 146 -5 151 -3 5 -30 12
-60 15 -30 3 -73 8 -94 10 -22 3 -69 7 -105 11 -36 3 -84 8 -106 10 -22 3 -65
7 -95 10 -30 3 -71 7 -90 9 -19 2 -66 7 -105 11 -38 3 -72 8 -75 11 -2 3 -7
60 -9 127 -7 233 -8 3637 -1 3637 4 0 4 18 0 40 -4 22 -5 42 -2 45 3 2 6 53 7
112 1 60 3 110 4 113 0 3 249 5 551 5 483 0 551 -2 554 -15 4 -15 17 -81 21
-110 1 -8 8 -43 14 -77 6 -35 16 -91 21 -125 6 -35 13 -74 16 -88 7 -35 14
-80 19 -115 4 -30 10 -59 21 -105 3 -14 6 -32 6 -40 0 -8 7 -49 15 -90 7 -41
16 -91 19 -110 3 -19 8 -38 10 -41 2 -4 96 -7 210 -6 l206 0 -7 151 c-4 83 -8
189 -10 236 -2 47 -7 146 -10 220 -3 74 -8 182 -10 240 -5 120 -16 360 -19
405 l-1 30 -810 3 c-446 1 -968 4 -1160 5 -193 1 -366 0 -385 -3z"/>
<path d="M7100 6033 c-14 -1 -209 -4 -435 -7 -225 -2 -430 -6 -455 -9 -25 -2
-70 -8 -100 -12 -30 -4 -66 -9 -80 -11 -101 -12 -402 -83 -445 -104 -27 -13
-137 -51 -152 -52 -7 -1 -13 -5 -13 -10 0 -4 -8 -8 -18 -8 -10 0 -29 -8 -42
-17 -14 -10 -27 -17 -30 -16 -8 2 -174 -81 -188 -94 -7 -7 -18 -13 -23 -13 -6
0 -25 -11 -43 -25 -18 -14 -38 -25 -44 -25 -6 0 -12 -3 -14 -7 -1 -5 -25 -23
-53 -42 -86 -59 -191 -148 -275 -233 -68 -68 -109 -116 -213 -248 -10 -12 -66
-100 -124 -195 -16 -26 -113 -225 -113 -232 0 -3 -6 -19 -14 -36 -17 -37 -56
-145 -61 -167 -2 -8 -13 -47 -24 -86 -19 -68 -45 -182 -56 -254 -3 -19 -8 -46
-10 -60 -17 -89 -27 -240 -29 -450 -1 -165 1 -203 19 -390 11 -108 13 -125 15
-125 2 0 9 -35 14 -75 2 -19 7 -42 10 -50 3 -8 8 -28 10 -45 3 -16 7 -40 10
-52 3 -13 8 -33 11 -44 10 -47 37 -137 61 -204 14 -38 30 -85 35 -103 16 -52
151 -311 204 -391 28 -40 55 -81 60 -90 6 -9 12 -18 15 -21 3 -3 23 -27 45
-55 100 -126 264 -272 461 -412 40 -29 320 -172 346 -177 7 -2 25 -8 41 -14
60 -25 199 -68 280 -88 47 -11 166 -36 191 -39 78 -10 124 -17 146 -21 84 -14
363 -18 1350 -18 l1105 -1 3 148 c2 113 0 148 -10 152 -7 2 -40 6 -73 10 -104
10 -159 16 -195 21 -19 2 -60 7 -90 10 -255 26 -267 28 -276 37 -12 12 -17
597 -17 2082 0 1318 5 1990 15 2000 2 2 30 7 63 10 33 4 74 8 90 10 17 2 57 6
89 9 33 4 71 8 85 10 14 3 58 7 96 11 39 3 90 9 115 12 50 6 79 10 98 12 9 1
12 38 12 150 l0 148 -677 -1 c-373 0 -689 -1 -703 -3z m-20 -333 l46 0 2 -97
c2 -71 14 -2282 13 -2358 0 -5 -1 -113 -1 -240 -1 -257 -11 -1358 -14 -1420
l-1 -40 -410 1 c-263 0 -435 5 -480 12 -179 30 -203 35 -275 60 -8 3 -26 7
-40 9 -13 2 -29 8 -35 12 -5 5 -28 14 -49 21 -35 11 -134 60 -206 101 -115 65
-362 290 -393 357 -6 12 -14 22 -19 22 -4 0 -8 5 -8 10 0 6 -9 20 -20 32 -11
12 -20 28 -20 35 0 7 -4 13 -10 13 -5 0 -10 6 -10 14 0 8 -4 16 -9 18 -7 3
-85 158 -124 248 -13 30 -45 123 -77 225 -13 41 -49 200 -55 239 -2 17 -6 40
-8 51 -4 19 -12 72 -22 155 -27 220 -27 713 0 880 2 14 7 49 10 79 7 59 8 62
30 171 8 41 17 85 20 98 2 12 7 27 10 32 4 6 8 22 11 35 7 37 58 190 87 260
41 98 137 275 164 303 7 7 13 16 13 20 0 4 14 22 30 41 17 18 30 37 30 42 0
17 192 199 273 258 47 34 89 62 93 61 4 -1 10 3 13 8 9 15 159 88 249 121 73
27 171 56 227 67 163 32 159 32 350 40 83 4 151 7 152 8 1 0 95 0 210 -1 114
-1 228 -3 253 -3z"/>
</g>
</svg>
