<svg xmlns="http://www.w3.org/2000/svg" viewBox="0 0 18239 299" width="18239" height="299"><path d="M150.2 19.5c-34.651 0-67.917 13.78-92.419 38.281C33.28 82.283 19.5 115.549 19.5 150.2c0 34.651 13.78 67.917 38.281 92.419C82.283 267.12 115.549 280.9 150.2 280.9c34.651 0 67.917-13.78 92.419-38.281C267.12 218.117 280.9 184.851 280.9 150.2c0-34.651-13.78-67.917-38.281-92.419C218.117 33.28 184.851 19.5 150.2 19.5z" fill="none" stroke="#fd6500" stroke-miterlimit="10"/><path d="M65.265 33.997c-24.684 17.934-43.064 43.233-52.493 72.25-9.428 29.017-9.428 60.289 0 89.306 9.429 29.017 27.809 54.316 52.493 72.25C89.949 285.737 119.689 295.4 150.2 295.4c38.309 0 75.088-15.234 102.177-42.323C279.466 225.988 294.7 189.209 294.7 150.9c0-38.309-15.234-75.088-42.323-102.177C225.288 21.634 188.509 6.4 150.2 6.4c-30.511 0-60.251 9.663-84.935 27.597" fill="#fd6500"/><path d="M449.2 19.5c-34.651 0-67.917 13.78-92.419 38.281C332.28 82.283 318.5 115.549 318.5 150.2c0 34.651 13.78 67.917 38.281 92.419C381.283 267.12 414.549 280.9 449.2 280.9c34.651 0 67.917-13.78 92.419-38.281C566.12 218.117 579.9 184.851 579.9 150.2c0-34.651-13.78-67.917-38.281-92.419C517.117 33.28 483.851 19.5 449.2 19.5z" fill="none" stroke="#fd6500" stroke-width=".016747" stroke-miterlimit="10"/><path d="M364.304 34.048c-24.67 17.928-43.039 43.216-52.462 72.219-9.422 29.004-9.422 60.262 0 89.266 9.423 29.003 27.792 54.291 52.462 72.219 24.672 17.921 54.398 27.576 84.894 27.574 38.29-.002 75.05-15.229 102.127-42.304 27.076-27.075 42.304-63.834 42.308-102.122-.003-38.288-15.23-75.046-42.306-102.121-27.075-27.074-63.835-42.3-102.123-42.302l-.008-.005c-30.496-.001-60.22 9.654-84.892 27.576" fill="#fd6500"/><path d="M748.2 19.5c-34.651 0-67.917 13.78-92.419 38.281C631.28 82.283 617.5 115.549 617.5 150.2c0 34.651 13.78 67.917 38.281 92.419C680.283 267.12 713.549 280.9 748.2 280.9c34.651 0 67.917-13.78 92.419-38.281C865.12 218.117 878.9 184.851 878.9 150.2c0-34.651-13.78-67.917-38.281-92.419C816.117 33.28 782.851 19.5 748.2 19.5z" fill="none" stroke="#fd6500" stroke-width=".069313" stroke-miterlimit="10"/><path d="M663.425 34.209c-24.623 17.907-42.957 43.16-52.363 72.123-9.404 28.962-9.404 60.174 0 89.136 9.406 28.963 27.74 54.216 52.363 72.123 24.638 17.881 54.318 27.512 84.768 27.503 38.229-.009 74.931-15.214 101.967-42.244 27.037-27.031 42.247-63.727 42.262-101.95-.011-38.221-15.218-74.915-42.251-101.943C823.138 21.928 786.44 6.725 748.215 6.719l-.033-.019c-30.446-.007-60.123 9.626-84.757 27.509" fill="#fd6500"/><path d="M1047.2 19.5c-34.651 0-67.917 13.78-92.419 38.281C930.28 82.283 916.5 115.549 916.5 150.2c0 34.651 13.78 67.917 38.281 92.419 24.502 24.501 57.768 38.281 92.419 38.281 34.651 0 67.917-13.78 92.419-38.281 24.501-24.502 38.281-57.768 38.281-92.419 0-34.651-13.78-67.917-38.281-92.419C1115.117 33.28 1081.851 19.5 1047.2 19.5z" fill="none" stroke="#fd6500" stroke-width=".161566" stroke-miterlimit="10"/><path d="M962.639 34.491c-24.542 17.871-42.816 43.064-52.191 71.953-9.373 28.89-9.373 60.022 0 88.912 9.375 28.889 27.649 54.082 52.191 71.953 24.575 17.811 54.176 27.398 84.545 27.378 38.121-.02 74.722-15.187 101.688-42.139 26.966-26.953 42.145-63.54 42.179-101.648-.025-38.103-15.196-74.685-42.154-101.633-26.958-26.947-63.55-42.108-101.663-42.124l-.075-.045c-30.36-.015-59.954 9.577-84.52 27.393" fill="#fd6500"/><path d="M1346.2 19.5c-34.651 0-67.917 13.78-92.419 38.281-24.501 24.502-38.281 57.768-38.281 92.419 0 34.651 13.78 67.917 38.281 92.419 24.502 24.501 57.768 38.281 92.419 38.281 34.651 0 67.917-13.78 92.419-38.281 24.501-24.502 38.281-57.768 38.281-92.419 0-34.651-13.78-67.917-38.281-92.419C1414.117 33.28 1380.851 19.5 1346.2 19.5z" fill="none" stroke="#fd6500" stroke-width=".297941" stroke-miterlimit="10"/><path d="M1261.954 34.908c-24.422 17.817-42.606 42.921-51.935 71.703-9.327 28.782-9.327 59.796 0 88.578 9.329 28.782 27.513 53.886 51.935 71.703 24.483 17.706 53.968 27.229 84.216 27.192 37.963-.037 74.413-15.145 101.275-41.983 26.863-26.838 41.996-63.263 42.058-101.201-.046-37.929-15.165-74.345-42.012-101.173-26.847-26.829-63.281-41.928-101.228-41.956l-.139-.083c-30.233-.028-59.703 9.504-84.17 27.22" fill="#fd6500"/><path d="M1645.2 19.5c-34.651 0-67.917 13.78-92.419 38.281-24.501 24.502-38.281 57.768-38.281 92.419 0 34.651 13.78 67.917 38.281 92.419 24.502 24.501 57.768 38.281 92.419 38.281 34.651 0 67.917-13.78 92.419-38.281 24.501-24.502 38.281-57.768 38.281-92.419 0-34.651-13.78-67.917-38.281-92.419C1713.117 33.28 1679.851 19.5 1645.2 19.5z" fill="none" stroke="#fd6500" stroke-width=".483529" stroke-miterlimit="10"/><path d="M1561.383 35.475c-24.258 17.745-42.32 42.727-51.587 71.363-9.265 28.636-9.265 59.488 0 88.124 9.267 28.636 27.329 53.618 51.587 71.363 24.358 17.564 53.684 27 83.769 26.94 37.747-.06 73.991-15.091 100.713-41.772 26.721-26.682 41.792-62.885 41.892-100.593-.075-37.692-15.121-73.881-41.817-100.548-26.697-26.666-62.916-41.682-100.638-41.727l-.225-.135c-30.06-.045-59.361 9.406-83.694 26.985" fill="#fd6500"/><path d="M1944.2 19.5c-34.651 0-67.917 13.78-92.419 38.281-24.501 24.502-38.281 57.768-38.281 92.419 0 34.651 13.78 67.917 38.281 92.419 24.502 24.501 57.768 38.281 92.419 38.281 34.651 0 67.917-13.78 92.419-38.281 24.501-24.502 38.281-57.768 38.281-92.419 0-34.651-13.78-67.917-38.281-92.419C2012.117 33.28 1978.851 19.5 1944.2 19.5z" fill="none" stroke="#fd6500" stroke-width=".724164" stroke-miterlimit="10"/><path d="M1860.939 36.211c-24.045 17.65-41.95 42.475-51.135 70.921-9.184 28.446-9.184 59.09 0 87.536 9.185 28.446 27.09 53.271 51.135 70.921 24.196 17.38 53.317 26.703 83.189 26.613 37.468-.089 73.446-15.019 99.984-41.498 26.538-26.478 41.528-62.396 41.678-99.804-.112-37.386-15.065-73.281-41.566-99.737-26.5-26.456-62.441-41.363-99.871-41.431l-.338-.202c-29.834-.067-58.918 9.278-83.076 26.681" fill="#fd6500"/><path d="M2243.2 19.5c-34.651 0-67.917 13.78-92.419 38.281-24.501 24.502-38.281 57.768-38.281 92.419 0 34.651 13.78 67.917 38.281 92.419 24.502 24.501 57.768 38.281 92.419 38.281 34.651 0 67.917-13.78 92.419-38.281 24.501-24.502 38.281-57.768 38.281-92.419 0-34.651-13.78-67.917-38.281-92.419C2311.117 33.28 2277.851 19.5 2243.2 19.5z" fill="none" stroke="#fd6500" stroke-width="1.026501" stroke-miterlimit="10"/><path d="M2160.638 37.135c-23.779 17.532-41.485 42.158-50.568 70.367-9.083 28.208-9.083 58.588 0 86.796 9.083 28.209 26.789 52.835 50.568 70.367 23.992 17.149 52.854 26.33 82.459 26.203 37.118-.128 72.761-14.931 99.069-41.154 26.309-26.224 41.197-61.782 41.41-98.814-.16-37-14.995-72.526-41.25-98.718-26.256-26.192-61.846-40.963-98.91-41.058l-.478-.287c-29.552-.096-58.361 9.117-82.3 26.298" fill="#fd6500"/><path d="M2542.2 19.5c-34.651 0-67.917 13.78-92.419 38.281-24.501 24.502-38.281 57.768-38.281 92.419 0 34.651 13.78 67.917 38.281 92.419 24.502 24.501 57.768 38.281 92.419 38.281 34.651 0 67.917-13.78 92.419-38.281 24.501-24.502 38.281-57.768 38.281-92.419 0-34.651-13.78-67.917-38.281-92.419C2610.117 33.28 2576.851 19.5 2542.2 19.5z" fill="none" stroke="#fd6500" stroke-width="1.398063" stroke-miterlimit="10"/><path d="M2460.497 38.271c-23.451 17.386-40.914 41.769-49.872 69.685-8.957 27.915-8.957 57.973 0 85.888 8.958 27.916 26.421 52.299 49.872 69.685 23.741 16.865 52.286 25.872 81.563 25.698 36.686-.174 71.918-14.821 97.944-40.731 26.026-25.91 40.789-61.026 41.079-97.596-.217-36.526-14.908-71.599-40.862-97.466-25.953-25.867-61.113-40.47-97.726-40.6l-.652-.391c-29.205-.13-57.677 8.92-81.346 25.828" fill="#fd6500"/><path d="M2841.2 19.5c-34.651 0-67.917 13.78-92.419 38.281-24.501 24.502-38.281 57.768-38.281 92.419 0 34.651 13.78 67.917 38.281 92.419 24.502 24.501 57.768 38.281 92.419 38.281 34.651 0 67.917-13.78 92.419-38.281 24.501-24.502 38.281-57.768 38.281-92.419 0-34.651-13.78-67.917-38.281-92.419C2909.117 33.28 2875.851 19.5 2841.2 19.5z" fill="none" stroke="#fd6500" stroke-width="1.847207" stroke-miterlimit="10"/><path d="M2760.536 39.644c-23.056 17.21-40.223 41.299-49.03 68.861-8.806 27.561-8.806 57.229 0 84.79 8.807 27.562 25.974 51.651 49.03 68.861 23.438 16.521 51.599 25.317 80.479 25.088 36.165-.23 70.9-14.688 96.584-40.219 25.685-25.532 40.297-60.114 40.679-96.125-.287-35.954-14.803-70.478-40.392-95.952-25.588-25.474-60.228-39.875-96.297-40.048l-.861-.516c-28.785-.172-56.85 8.682-80.192 25.26" fill="#fd6500"/><path d="M3140.2 19.5c-34.651 0-67.917 13.78-92.419 38.281-24.501 24.502-38.281 57.768-38.281 92.419 0 34.651 13.78 67.917 38.281 92.419 24.502 24.501 57.768 38.281 92.419 38.281 34.651 0 67.917-13.78 92.419-38.281 24.501-24.502 38.281-57.768 38.281-92.419 0-34.651-13.78-67.917-38.281-92.419C3208.117 33.28 3174.851 19.5 3140.2 19.5z" fill="none" stroke="#fd6500" stroke-width="2.382953" stroke-miterlimit="10"/><path d="M3060.774 41.282c-22.583 17-39.399 40.738-48.025 67.877-8.626 27.14-8.626 56.342 0 83.482 8.626 27.139 25.442 50.877 48.025 67.877 23.077 16.111 50.78 24.656 79.188 24.36 35.542-.296 69.685-14.529 94.962-39.609 25.277-25.079 39.708-59.024 40.202-94.369-.371-35.271-14.678-69.142-39.832-94.147-25.154-25.006-59.173-39.165-94.592-39.387l-1.111-.666c-28.284-.222-55.863 8.397-78.817 24.582" fill="#fd6500"/><path d="M3439.2 19.5c-34.651 0-67.917 13.78-92.419 38.281-24.501 24.502-38.281 57.768-38.281 92.419 0 34.651 13.78 67.917 38.281 92.419 24.502 24.501 57.768 38.281 92.419 38.281 34.651 0 67.917-13.78 92.419-38.281 24.501-24.502 38.281-57.768 38.281-92.419 0-34.651-13.78-67.917-38.281-92.419C3507.117 33.28 3473.851 19.5 3439.2 19.5z" fill="none" stroke="#fd6500" stroke-width="3.014532" stroke-miterlimit="10"/><path d="M3361.234 43.213c-22.026 16.752-38.427 40.076-46.841 66.718-8.413 26.642-8.413 55.296 0 81.938 8.414 26.642 24.815 49.966 46.841 66.718 22.651 15.629 49.814 23.877 77.665 23.502 34.809-.374 68.252-14.342 93.049-38.889 24.797-24.547 39.016-57.741 39.64-92.3-.468-34.465-14.53-67.566-39.171-92.019-24.641-24.453-57.929-38.328-92.582-38.609l-1.405-.842c-27.694-.281-54.701 8.061-77.196 23.783" fill="#fd6500"/><path d="M3738.2 19.5c-34.651 0-67.917 13.78-92.419 38.281-24.501 24.502-38.281 57.768-38.281 92.419 0 34.651 13.78 67.917 38.281 92.419 24.502 24.501 57.768 38.281 92.419 38.281 34.651 0 67.917-13.78 92.419-38.281 24.501-24.502 38.281-57.768 38.281-92.419 0-34.651-13.78-67.917-38.281-92.419C3806.117 33.28 3772.851 19.5 3738.2 19.5z" fill="none" stroke="#fd6500" stroke-width="3.75051" stroke-miterlimit="10"/><path d="M3661.936 45.463c-21.378 16.464-37.296 39.306-45.462 65.368-8.165 26.062-8.165 54.076 0 80.138 8.166 26.062 24.084 48.904 45.462 65.368 22.155 15.066 48.688 22.969 75.889 22.503 33.954-.466 66.584-14.125 90.821-38.052 24.238-23.926 38.208-56.245 38.985-89.888-.583-33.527-14.359-65.729-38.402-89.539-24.043-23.81-56.478-37.353-90.239-37.702l-1.748-1.048c-27.007-.349-53.346 7.67-75.306 22.852" fill="#fd6500"/><path d="M4037.2 19.5c-34.651 0-67.917 13.78-92.419 38.281-24.501 24.502-38.281 57.768-38.281 92.419 0 34.651 13.78 67.917 38.281 92.419 24.502 24.501 57.768 38.281 92.419 38.281 34.651 0 67.917-13.78 92.419-38.281 24.501-24.502 38.281-57.768 38.281-92.419 0-34.651-13.78-67.917-38.281-92.419C4105.117 33.28 4071.851 19.5 4037.2 19.5z" fill="none" stroke="#fd6500" stroke-width="4.597296" stroke-miterlimit="10"/><path d="M3962.894 48.052c-20.631 16.132-35.994 38.419-43.874 63.813-7.88 25.395-7.88 52.675 0 78.07 7.88 25.394 23.243 47.681 43.874 63.813 21.583 14.418 47.393 21.924 73.846 21.353 32.972-.571 64.664-13.875 88.258-37.087 23.593-23.213 37.278-54.524 38.231-87.114-.715-32.447-14.161-63.616-37.517-86.685-23.355-23.07-54.81-36.231-87.543-36.659l-2.143-1.285c-26.216-.428-51.787 7.22-73.132 21.781" fill="#fd6500"/><path d="M4336.2 19.5c-34.651 0-67.917 13.78-92.419 38.281-24.501 24.502-38.281 57.768-38.281 92.419 0 34.651 13.78 67.917 38.281 92.419 24.502 24.501 57.768 38.281 92.419 38.281 34.651 0 67.917-13.78 92.419-38.281 24.501-24.502 38.281-57.768 38.281-92.419 0-34.651-13.78-67.917-38.281-92.419C4404.117 33.28 4370.851 19.5 4336.2 19.5z" fill="none" stroke="#fd6500" stroke-width="5.556938" stroke-miterlimit="10"/><path d="M4264.112 50.986c-19.785 15.755-34.517 37.414-42.075 62.052-7.557 24.639-7.557 51.085 0 75.724 7.558 24.638 22.29 46.297 42.075 62.052 20.937 13.685 45.926 20.74 71.532 20.049 31.858-.69 62.488-13.591 85.352-35.994 22.864-22.403 36.226-52.573 37.377-83.969-.863-31.224-13.937-61.221-36.513-83.452-22.577-22.23-52.92-34.959-84.489-35.476l-2.59-1.553c-25.319-.518-50.02 6.71-70.669 20.567" fill="#fd6500"/><path d="M4635.2 19.5c-34.651 0-67.917 13.78-92.419 38.281-24.501 24.502-38.281 57.768-38.281 92.419 0 34.651 13.78 67.917 38.281 92.419 24.502 24.501 57.768 38.281 92.419 38.281 34.651 0 67.917-13.78 92.419-38.281 24.501-24.502 38.281-57.768 38.281-92.419 0-34.651-13.78-67.917-38.281-92.419C4703.117 33.28 4669.851 19.5 4635.2 19.5z" fill="none" stroke="#fd6500" stroke-width="6.624446" stroke-miterlimit="10"/><path d="M4565.58 54.25c-18.844 15.336-32.875 36.295-40.073 60.093-7.198 23.797-7.198 49.317 0 73.114 7.198 23.798 21.229 44.757 40.073 60.093 20.217 12.869 44.293 19.423 68.958 18.6 30.617-.823 60.067-13.276 82.119-34.778 22.053-21.503 35.055-50.404 36.427-80.472-1.029-29.863-13.688-58.557-35.397-79.855-21.71-21.297-50.816-33.544-81.091-34.161l-3.088-1.851c-24.321-.617-48.054 6.143-67.928 19.217" fill="#fd6500"/><path d="M4934.2 19.5c-34.651 0-67.917 13.78-92.419 38.281-24.501 24.502-38.281 57.768-38.281 92.419 0 34.651 13.78 67.917 38.281 92.419 24.502 24.501 57.768 38.281 92.419 38.281 34.651 0 67.917-13.78 92.419-38.281 24.501-24.502 38.281-57.768 38.281-92.419 0-34.651-13.78-67.917-38.281-92.419C5002.117 33.28 4968.851 19.5 4934.2 19.5z" fill="none" stroke="#fd6500" stroke-width="7.785499" stroke-miterlimit="10"/><path d="M4867.265 57.799c-17.821 14.882-31.09 35.08-37.897 57.963-6.807 22.883-6.807 47.393 0 70.276 6.807 22.883 20.076 43.081 37.897 57.963 19.433 11.98 42.516 17.989 66.156 17.022 29.27-.967 57.435-12.932 78.605-33.456 21.169-20.523 33.78-48.043 35.393-76.667-1.21-28.382-13.417-55.66-34.184-75.942-20.766-20.282-48.528-32.006-77.394-32.731l-3.629-2.176c-23.237-.725-45.917 5.526-64.947 17.748" fill="#fd6500"/><path d="M5233.2 19.5c-34.651 0-67.917 13.78-92.419 38.281-24.501 24.502-38.281 57.768-38.281 92.419 0 34.651 13.78 67.917 38.281 92.419 24.502 24.501 57.768 38.281 92.419 38.281 34.651 0 67.917-13.78 92.419-38.281 24.501-24.502 38.281-57.768 38.281-92.419 0-34.651-13.78-67.917-38.281-92.419C5301.117 33.28 5267.851 19.5 5233.2 19.5z" fill="none" stroke="#fd6500" stroke-width="9.015945" stroke-miterlimit="10"/><path d="M5169.11 61.561c-16.736 14.399-29.198 33.791-35.591 55.705-6.392 21.913-6.392 45.355 0 67.268 6.393 21.914 18.855 41.306 35.591 55.705 18.603 11.039 40.634 16.471 63.188 15.351 27.842-1.12 54.645-12.568 74.879-32.054 20.234-19.487 32.431-45.543 34.298-72.636-1.4-26.813-13.13-52.59-32.897-71.796-19.767-19.206-46.104-30.375-73.478-31.215l-4.202-2.519c-22.087-.84-43.652 4.872-61.788 16.191" fill="#fd6500"/><path d="M5532.2 19.5c-34.651 0-67.917 13.78-92.419 38.281-24.501 24.502-38.281 57.768-38.281 92.419 0 34.651 13.78 67.917 38.281 92.419 24.502 24.501 57.768 38.281 92.419 38.281 34.651 0 67.917-13.78 92.419-38.281 24.501-24.502 38.281-57.768 38.281-92.419 0-34.651-13.78-67.917-38.281-92.419C5600.117 33.28 5566.851 19.5 5532.2 19.5z" fill="none" stroke="#fd6500" stroke-width="10.28428" stroke-miterlimit="10"/><path d="M5471.042 65.439c-15.618 13.901-27.247 32.463-33.213 53.377-5.965 20.914-5.965 43.254 0 64.168 5.966 20.914 17.595 39.476 33.213 53.377 17.748 10.07 38.695 14.906 60.13 13.629 26.368-1.277 51.769-12.193 71.038-30.61 19.27-18.417 31.039-42.964 33.169-68.48-1.598-25.196-12.834-49.425-31.571-67.522-18.737-18.097-43.605-28.694-69.441-29.652l-4.793-2.874c-20.902-.958-41.317 4.198-58.532 14.587" fill="#fd6500"/><path d="M5831.2 19.5c-34.651 0-67.917 13.78-92.419 38.281-24.501 24.502-38.281 57.768-38.281 92.419 0 34.651 13.78 67.917 38.281 92.419 24.502 24.501 57.768 38.281 92.419 38.281 34.651 0 67.917-13.78 92.419-38.281 24.501-24.502 38.281-57.768 38.281-92.419 0-34.651-13.78-67.917-38.281-92.419C5899.117 33.28 5865.851 19.5 5831.2 19.5z" fill="none" stroke="#fd6500" stroke-width="11.556762" stroke-miterlimit="10"/><path d="M5772.984 69.329c-14.496 13.403-25.29 31.131-30.827 51.042-5.537 19.911-5.537 41.147 0 61.058s16.331 37.639 30.827 51.042c16.89 9.097 36.749 13.336 57.06 11.9 24.892-1.435 48.884-11.817 67.186-29.16 18.302-17.344 29.643-40.378 32.037-64.311-1.796-23.574-12.538-46.249-30.241-63.234-17.704-16.985-41.098-27.008-65.391-28.084l-5.386-3.23c-19.713-1.077-38.974 3.522-55.265 12.977" fill="#fd6500"/><path d="M6130.2 19.5c-34.651 0-67.917 13.78-92.419 38.281-24.501 24.502-38.281 57.768-38.281 92.419 0 34.651 13.78 67.917 38.281 92.419 24.502 24.501 57.768 38.281 92.419 38.281 34.651 0 67.917-13.78 92.419-38.281 24.501-24.502 38.281-57.768 38.281-92.419 0-34.651-13.78-67.917-38.281-92.419C6198.117 33.28 6164.851 19.5 6130.2 19.5z" fill="none" stroke="#fd6500" stroke-width="12.803049" stroke-miterlimit="10"/><path d="M6074.865 73.139c-13.397 12.914-23.373 29.826-28.49 48.755-5.117 18.929-5.117 39.083 0 58.012 5.117 18.929 15.093 35.841 28.49 48.755 16.049 8.143 34.843 11.798 54.055 10.207 23.444-1.59 46.058-11.448 63.412-27.741 17.355-16.293 28.275-37.845 30.927-60.227-1.989-21.985-12.246-43.139-28.938-59.034-16.691-15.896-38.642-25.356-61.423-26.549l-5.967-3.578c-18.549-1.193-36.68 2.859-52.066 11.4" fill="#fd6500"/><path d="M6429.2 19.5c-34.651 0-67.917 13.78-92.419 38.281-24.501 24.502-38.281 57.768-38.281 92.419 0 34.651 13.78 67.917 38.281 92.419 24.502 24.501 57.768 38.281 92.419 38.281 34.651 0 67.917-13.78 92.419-38.281 24.501-24.502 38.281-57.768 38.281-92.419 0-34.651-13.78-67.917-38.281-92.419C6497.117 33.28 6463.851 19.5 6429.2 19.5z" fill="none" stroke="#fd6500" stroke-width="14" stroke-miterlimit="10"/><path d="M6376.632 76.799c-12.342 12.444-21.532 28.572-26.246 46.558-4.714 17.986-4.714 37.1 0 55.086 4.714 17.986 13.904 34.114 26.246 46.558 15.242 7.229 33.012 10.321 51.168 8.582 22.055-1.739 43.344-11.094 59.789-26.378 16.444-15.283 26.961-35.412 29.861-56.305-2.175-20.459-11.967-40.152-27.687-55.001-15.719-14.849-36.283-23.77-57.613-25.074l-6.525-3.913c-17.43-1.304-34.475 2.224-48.993 9.887" fill="#fd6500"/><path d="M6728.2 19.5c-34.651 0-67.917 13.78-92.419 38.281-24.501 24.502-38.281 57.768-38.281 92.419 0 34.651 13.78 67.917 38.281 92.419 24.502 24.501 57.768 38.281 92.419 38.281 34.651 0 67.917-13.78 92.419-38.281 24.501-24.502 38.281-57.768 38.281-92.419 0-34.651-13.78-67.917-38.281-92.419C6796.117 33.28 6762.851 19.5 6728.2 19.5z" fill="none" stroke="#fd6500" stroke-width="15.132751" stroke-miterlimit="10"/><path d="M6678.251 80.262c-11.343 12-19.789 27.385-24.122 44.479-4.333 17.094-4.333 35.224 0 52.318s12.779 32.479 24.122 44.479c14.478 6.362 31.28 8.923 48.436 7.044 20.739-1.88 40.775-10.76 56.359-25.088 15.583-14.329 25.718-33.11 28.853-52.594-2.351-19.014-11.703-37.326-26.502-51.184-14.8-13.858-34.053-22.269-54.008-23.678l-7.053-4.229c-16.372-1.41-32.39 1.621-46.085 8.453" fill="#fd6500"/><path d="M7027.2 19.5c-34.651 0-67.917 13.78-92.419 38.281-24.501 24.502-38.281 57.768-38.281 92.419 0 34.651 13.78 67.917 38.281 92.419 24.502 24.501 57.768 38.281 92.419 38.281 34.651 0 67.917-13.78 92.419-38.281 24.501-24.502 38.281-57.768 38.281-92.419 0-34.651-13.78-67.917-38.281-92.419C7095.117 33.28 7061.851 19.5 7027.2 19.5z" fill="none" stroke="#fd6500" stroke-width="16.193706" stroke-miterlimit="10"/><path d="M6979.704 83.505c-10.408 11.585-18.158 26.275-22.134 42.533-3.975 16.258-3.975 33.466 0 49.724 3.976 16.258 11.726 30.948 22.134 42.533 13.763 5.55 29.657 7.613 45.877 5.602 19.507-2.011 38.37-10.446 53.146-23.88 14.777-13.433 24.555-30.953 27.909-49.117-2.516-17.662-11.455-34.678-25.393-47.609-13.938-12.931-31.962-20.863-50.631-22.371l-7.547-4.526c-15.381-1.508-30.437 1.058-43.361 7.111" fill="#fd6500"/><path d="M7326.2 19.5c-34.651 0-67.917 13.78-92.419 38.281-24.501 24.502-38.281 57.768-38.281 92.419 0 34.651 13.78 67.917 38.281 92.419 24.502 24.501 57.768 38.281 92.419 38.281 34.651 0 67.917-13.78 92.419-38.281 24.501-24.502 38.281-57.768 38.281-92.419 0-34.651-13.78-67.917-38.281-92.419C7394.117 33.28 7360.851 19.5 7326.2 19.5z" fill="none" stroke="#fd6500" stroke-width="17.180653" stroke-miterlimit="10"/><path d="M7280.986 86.523c-9.538 11.197-16.64 25.241-20.284 40.721-3.643 15.48-3.643 31.832 0 47.312 3.644 15.48 10.746 29.524 20.284 40.721 13.097 4.796 28.147 6.396 43.496 4.262 18.362-2.134 36.132-10.154 50.158-22.755 14.026-12.602 23.472-28.947 27.031-45.884-2.67-16.403-11.225-32.215-24.362-44.283-13.136-12.068-30.017-19.555-47.489-21.155l-8.007-4.802c-14.459-1.6-28.62.533-40.827 5.863" fill="#fd6500"/><path d="M7625.2 19.5c-34.651 0-67.917 13.78-92.419 38.281-24.501 24.502-38.281 57.768-38.281 92.419 0 34.651 13.78 67.917 38.281 92.419 24.502 24.501 57.768 38.281 92.419 38.281 34.651 0 67.917-13.78 92.419-38.281 24.501-24.502 38.281-57.768 38.281-92.419 0-34.651-13.78-67.917-38.281-92.419C7693.117 33.28 7659.851 19.5 7625.2 19.5z" fill="none" stroke="#fd6500" stroke-width="18.094891" stroke-miterlimit="10"/><path d="M7582.1 89.318c-8.732 10.839-15.234 24.283-18.57 39.043-3.335 14.76-3.335 30.318 0 45.078 3.336 14.76 9.838 28.204 18.57 39.043 12.48 4.097 26.749 5.268 41.291 3.02 17.3-2.247 34.059-9.884 47.39-21.714 13.331-11.83 22.468-27.089 26.216-42.888-2.811-15.238-11.011-29.934-23.405-41.202-12.394-11.269-28.216-18.344-44.579-20.029l-8.434-5.057c-13.604-1.686-26.936.047-38.479 4.706" fill="#fd6500"/><path d="M7924.2 19.5c-34.651 0-67.917 13.78-92.419 38.281-24.501 24.502-38.281 57.768-38.281 92.419 0 34.651 13.78 67.917 38.281 92.419 24.502 24.501 57.768 38.281 92.419 38.281 34.651 0 67.917-13.78 92.419-38.281 24.501-24.502 38.281-57.768 38.281-92.419 0-34.651-13.78-67.917-38.281-92.419C7992.117 33.28 7958.851 19.5 7924.2 19.5z" fill="none" stroke="#fd6500" stroke-width="18.939753" stroke-miterlimit="10"/><path d="M7883.053 91.901c-7.987 10.508-13.935 23.399-16.986 37.493-3.05 14.094-3.05 28.918 0 43.012 3.051 14.094 8.999 26.985 16.986 37.493 11.911 3.451 25.457 4.225 39.253 1.873 16.319-2.352 32.143-9.634 44.832-20.752 12.689-11.118 21.542-25.372 25.465-40.12-2.943-14.16-10.814-27.826-22.522-38.355-11.708-10.53-26.552-17.224-41.89-18.988l-8.827-5.293c-12.816-1.765-25.381-.402-36.311 3.637" fill="#fd6500"/><path d="M8223.2 19.5c-34.651 0-67.917 13.78-92.419 38.281-24.501 24.502-38.281 57.768-38.281 92.419 0 34.651 13.78 67.917 38.281 92.419 24.502 24.501 57.768 38.281 92.419 38.281 34.651 0 67.917-13.78 92.419-38.281 24.501-24.502 38.281-57.768 38.281-92.419 0-34.651-13.78-67.917-38.281-92.419C8291.117 33.28 8257.851 19.5 8223.2 19.5z" fill="none" stroke="#fd6500" stroke-width="19.719581" stroke-miterlimit="10"/><path d="M8183.856 94.285c-7.3 10.202-12.735 22.582-15.524 36.062-2.788 13.48-2.788 27.626 0 41.106 2.789 13.48 8.224 25.86 15.524 36.062 11.385 2.855 24.264 3.263 37.372.814 15.414-2.45 30.375-9.404 42.471-19.864 12.096-10.461 20.686-23.787 24.771-37.565-3.064-13.166-10.633-25.88-21.707-35.728-11.075-9.848-25.015-16.19-39.408-18.027l-9.191-5.511c-12.086-1.837-23.945-.816-34.308 2.651" fill="#fd6500"/><path d="M8522.2 19.5c-34.651 0-67.917 13.78-92.419 38.281-24.501 24.502-38.281 57.768-38.281 92.419 0 34.651 13.78 67.917 38.281 92.419 24.502 24.501 57.768 38.281 92.419 38.281 34.651 0 67.917-13.78 92.419-38.281 24.501-24.502 38.281-57.768 38.281-92.419 0-34.651-13.78-67.917-38.281-92.419C8590.117 33.28 8556.851 19.5 8522.2 19.5z" fill="none" stroke="#fd6500" stroke-width="20.439087" stroke-miterlimit="10"/><path d="M8484.519 96.484c-6.665 9.92-11.628 21.829-14.174 34.742-2.546 12.913-2.546 26.435 0 39.348s7.509 24.822 14.174 34.742c10.9 2.304 23.164 2.374 35.637-.164 14.579-2.539 28.744-9.191 40.293-19.045 11.548-9.853 19.896-22.324 24.13-35.207-3.176-12.249-10.465-24.084-20.955-33.303-10.49-9.219-23.597-15.237-37.117-17.141l-9.526-5.712c-11.415-1.904-22.621-1.198-32.462 1.74" fill="#fd6500"/><path d="M8821.2 19.5c-34.651 0-67.917 13.78-92.419 38.281-24.501 24.502-38.281 57.768-38.281 92.419 0 34.651 13.78 67.917 38.281 92.419 24.502 24.501 57.768 38.281 92.419 38.281 34.651 0 67.917-13.78 92.419-38.281 24.501-24.502 38.281-57.768 38.281-92.419 0-34.651-13.78-67.917-38.281-92.419C8889.117 33.28 8855.851 19.5 8821.2 19.5z" fill="none" stroke="#fd6500" stroke-width="21.102972" stroke-miterlimit="10"/><path d="M8785.054 98.514c-6.08 9.66-10.607 21.134-12.93 33.524-2.322 12.389-2.322 25.335 0 37.724 2.323 12.39 6.85 23.864 12.93 33.524 10.452 1.796 22.149 1.555 34.036-1.066 13.807-2.621 27.238-8.994 38.282-18.288 11.044-9.294 19.168-20.975 23.539-33.032-3.278-11.402-10.309-22.428-20.26-31.066-9.951-8.638-22.289-14.357-35.004-16.323l-9.836-5.897c-10.794-1.966-21.398-1.552-30.757.9" fill="#fd6500"/><path d="M9120.2 19.5c-34.651 0-67.917 13.78-92.419 38.281-24.501 24.502-38.281 57.768-38.281 92.419 0 34.651 13.78 67.917 38.281 92.419 24.502 24.501 57.768 38.281 92.419 38.281 34.651 0 67.917-13.78 92.419-38.281 24.501-24.502 38.281-57.768 38.281-92.419 0-34.651-13.78-67.917-38.281-92.419C9188.117 33.28 9154.851 19.5 9120.2 19.5z" fill="none" stroke="#fd6500" stroke-width="21.715717" stroke-miterlimit="10"/><path d="M9085.471 100.387c-5.54 9.42-9.665 20.492-11.781 32.399-2.117 11.907-2.117 24.321 0 36.228 2.116 11.907 6.241 22.979 11.781 32.399 10.038 1.327 21.211.799 32.557-1.898 13.097-2.697 25.85-8.814 36.428-17.591 10.578-8.777 18.495-19.729 22.993-31.024-3.373-10.621-10.166-20.898-19.62-29.001-9.453-8.103-21.081-13.545-33.053-15.568l-10.121-6.069c-10.222-2.023-20.27-1.877-29.184.125" fill="#fd6500"/><g><path d="M9419.2 19.5c-34.651 0-67.917 13.78-92.419 38.281-24.501 24.502-38.281 57.768-38.281 92.419 0 34.651 13.78 67.917 38.281 92.419 24.502 24.501 57.768 38.281 92.419 38.281 34.651 0 67.917-13.78 92.419-38.281 24.501-24.502 38.281-57.768 38.281-92.419 0-34.651-13.78-67.917-38.281-92.419C9487.117 33.28 9453.851 19.5 9419.2 19.5z" fill="none" stroke="#fd6500" stroke-width="22.281487" stroke-miterlimit="10"/><path d="M9385.779 102.117c-5.041 9.198-8.795 19.9-10.721 31.361-1.925 11.461-1.925 23.383 0 34.844 1.926 11.461 5.68 22.163 10.721 31.361 9.657.895 20.346.101 31.193-2.666 12.439-2.768 24.566-8.647 34.714-16.947 10.148-8.3 17.875-18.579 22.49-29.17-3.461-9.9-10.034-19.487-19.028-27.095-8.994-7.608-19.967-12.795-31.253-14.87l-10.385-6.227c-9.693-2.076-19.228-2.178-27.731-.591" fill="#fd6500"/></g><g><path d="M9718.2 19.5c-34.651 0-67.917 13.78-92.419 38.281-24.501 24.502-38.281 57.768-38.281 92.419 0 34.651 13.78 67.917 38.281 92.419 24.502 24.501 57.768 38.281 92.419 38.281 34.651 0 67.917-13.78 92.419-38.281 24.501-24.502 38.281-57.768 38.281-92.419 0-34.651-13.78-67.917-38.281-92.419C9786.117 33.28 9752.851 19.5 9718.2 19.5z" fill="none" stroke="#fd6500" stroke-width="22.804095" stroke-miterlimit="10"/><path d="M9685.987 103.715c-4.58 8.993-7.991 19.352-9.741 30.402-1.749 11.049-1.749 22.517 0 33.566 1.75 11.05 5.161 21.409 9.741 30.402 9.305.496 19.547-.544 29.933-3.376 11.832-2.832 23.381-8.492 33.131-16.351 9.751-7.859 17.302-17.517 22.025-27.458-3.542-9.233-9.912-18.183-18.482-25.334-8.569-7.151-18.937-12.102-29.589-14.226l-10.628-6.373c-9.205-2.125-18.266-2.456-26.39-1.252" fill="#fd6500"/></g><g><path d="M10017.2 19.5c-34.651 0-67.917 13.78-92.419 38.281-24.501 24.502-38.281 57.768-38.281 92.419 0 34.651 13.78 67.917 38.281 92.419 24.502 24.501 57.768 38.281 92.419 38.281 34.651 0 67.917-13.78 92.419-38.281 24.501-24.502 38.281-57.768 38.281-92.419 0-34.651-13.78-67.917-38.281-92.419-24.502-24.501-57.768-38.281-92.419-38.281z" fill="none" stroke="#fd6500" stroke-width="23.286995" stroke-miterlimit="10"/><path d="M9986.104 105.191c-4.155 8.804-7.249 18.847-8.836 29.516-1.587 10.669-1.587 21.717 0 32.386 1.587 10.669 4.681 20.712 8.836 29.516 8.978.126 18.808-1.14 28.767-4.032 11.272-2.893 22.287-8.349 31.67-15.801 9.384-7.452 16.771-16.535 21.595-25.876-3.618-8.618-9.8-16.978-17.977-23.706-8.178-6.729-17.986-11.463-28.052-13.632l-10.854-6.508c-8.753-2.169-17.377-2.712-25.149-1.863" fill="#fd6500"/></g><g><path d="M10316.2 19.5c-34.651 0-67.917 13.78-92.419 38.281-24.501 24.502-38.281 57.768-38.281 92.419 0 34.651 13.78 67.917 38.281 92.419 24.502 24.501 57.768 38.281 92.419 38.281 34.651 0 67.917-13.78 92.419-38.281 24.501-24.502 38.281-57.768 38.281-92.419 0-34.651-13.78-67.917-38.281-92.419-24.502-24.501-57.768-38.281-92.419-38.281z" fill="none" stroke="#fd6500" stroke-width="23.733306" stroke-miterlimit="10"/><path d="M10286.136 106.556c-3.762 8.628-6.563 18.379-7.999 28.696-1.437 10.318-1.437 20.978 0 31.296 1.436 10.317 4.237 20.068 7.999 28.696 8.677-.215 18.125-1.69 27.691-4.638 10.753-2.948 21.274-8.217 30.318-15.293 9.044-7.075 16.282-15.628 21.198-24.413-3.687-8.048-9.696-15.864-17.511-22.203-7.815-6.338-17.106-10.871-26.631-13.081l-11.061-6.633c-8.337-2.211-16.556-2.949-24.004-2.427" fill="#fd6500"/></g><g><path d="M10615.2 19.5c-34.651 0-67.917 13.78-92.419 38.281-24.501 24.502-38.281 57.768-38.281 92.419 0 34.651 13.78 67.917 38.281 92.419 24.502 24.501 57.768 38.281 92.419 38.281 34.651 0 67.917-13.78 92.419-38.281 24.501-24.502 38.281-57.768 38.281-92.419 0-34.651-13.78-67.917-38.281-92.419-24.502-24.501-57.768-38.281-92.419-38.281z" fill="none" stroke="#fd6500" stroke-width="24.145834" stroke-miterlimit="10"/><path d="M10586.089 107.817c-3.397 8.467-5.927 17.947-7.225 27.939-1.298 9.993-1.298 20.295 0 30.288 1.298 9.992 3.828 19.472 7.225 27.939 8.4-.53 17.495-2.199 26.696-5.198 10.275-2.999 20.339-8.095 29.07-14.823 8.73-6.728 15.829-14.79 20.83-23.062-3.751-7.522-9.599-14.834-17.079-20.812-7.48-5.979-16.294-10.325-25.318-12.574l-11.254-6.748c-7.951-2.249-15.796-3.168-22.945-2.949" fill="#fd6500"/></g><g><path d="M10914.2 19.5c-34.651 0-67.917 13.78-92.419 38.281-24.501 24.502-38.281 57.768-38.281 92.419 0 34.651 13.78 67.917 38.281 92.419 24.502 24.501 57.768 38.281 92.419 38.281 34.651 0 67.917-13.78 92.419-38.281 24.501-24.502 38.281-57.768 38.281-92.419 0-34.651-13.78-67.917-38.281-92.419-24.502-24.501-57.768-38.281-92.419-38.281z" fill="none" stroke="#fd6500" stroke-width="24.527101" stroke-miterlimit="10"/><path d="M10885.971 108.982c-3.062 8.318-5.342 17.548-6.511 27.24-1.169 9.692-1.169 19.664 0 29.356s3.449 18.922 6.511 27.24c8.142-.823 16.911-2.67 25.776-5.717 9.832-3.046 19.475-7.982 27.915-14.389 8.441-6.406 15.411-14.014 20.492-21.812-3.811-7.036-9.511-13.883-16.681-19.528-7.171-5.644-15.543-9.819-24.105-12.104l-11.431-6.854c-7.595-2.285-15.094-3.371-21.966-3.432" fill="#fd6500"/></g><g><path d="M11213.2 19.5c-34.651 0-67.917 13.78-92.419 38.281-24.501 24.502-38.281 57.768-38.281 92.419 0 34.651 13.78 67.917 38.281 92.419 24.502 24.501 57.768 38.281 92.419 38.281 34.651 0 67.917-13.78 92.419-38.281 24.501-24.502 38.281-57.768 38.281-92.419 0-34.651-13.78-67.917-38.281-92.419-24.502-24.501-57.768-38.281-92.419-38.281z" fill="none" stroke="#fd6500" stroke-width="24.879378" stroke-miterlimit="10"/><path d="M11185.785 110.059c-2.751 8.18-4.799 17.18-5.85 26.594-1.051 9.414-1.051 19.08 0 28.494 1.051 9.414 3.099 18.414 5.85 26.594 7.905-1.092 16.373-3.105 24.927-6.195 9.423-3.09 18.676-7.878 26.849-13.988 8.172-6.109 15.024-13.298 20.177-20.658-3.865-6.587-9.428-13.004-16.312-18.341-6.885-5.336-14.849-9.352-22.984-11.669l-11.595-6.953c-7.266-2.318-14.446-3.559-21.062-3.878" fill="#fd6500"/></g><g><path d="M11512.2 19.5c-34.651 0-67.917 13.78-92.419 38.281-24.501 24.502-38.281 57.768-38.281 92.419 0 34.651 13.78 67.917 38.281 92.419 24.502 24.501 57.768 38.281 92.419 38.281 34.651 0 67.917-13.78 92.419-38.281 24.501-24.502 38.281-57.768 38.281-92.419 0-34.651-13.78-67.917-38.281-92.419-24.502-24.501-57.768-38.281-92.419-38.281z" fill="none" stroke="#fd6500" stroke-width="25.204708" stroke-miterlimit="10"/><path d="M11485.537 111.054c-2.464 8.052-4.299 16.838-5.24 25.996-.941 9.158-.941 18.542 0 27.7.941 9.158 2.776 17.944 5.24 25.996 7.686-1.34 15.876-3.506 24.143-6.637 9.045-3.13 17.938-7.782 25.863-13.617 7.925-5.835 14.667-12.637 19.888-19.592-3.916-6.172-9.352-12.192-15.972-17.244-6.62-5.053-14.208-8.921-21.948-11.269l-11.747-7.044c-6.962-2.348-13.847-3.731-20.227-4.289" fill="#fd6500"/></g><g><path d="M11811.2 19.5c-34.651 0-67.917 13.78-92.419 38.281-24.501 24.502-38.281 57.768-38.281 92.419 0 34.651 13.78 67.917 38.281 92.419 24.502 24.501 57.768 38.281 92.419 38.281 34.651 0 67.917-13.78 92.419-38.281 24.501-24.502 38.281-57.768 38.281-92.419 0-34.651-13.78-67.917-38.281-92.419-24.502-24.501-57.768-38.281-92.419-38.281z" fill="none" stroke="#fd6500" stroke-width="25.504934" stroke-miterlimit="10"/><path d="M11785.231 111.972c-2.199 7.934-3.837 16.524-4.677 25.445-.84 8.922-.84 18.044 0 26.966.84 8.921 2.478 17.511 4.677 25.445 7.483-1.57 15.417-3.877 23.419-7.044 8.696-3.168 17.257-7.694 24.954-13.275 7.697-5.582 14.338-12.027 19.621-18.609-3.963-5.79-9.282-11.443-15.659-16.233-6.376-4.789-13.616-8.523-20.992-10.899l-11.887-7.127c-6.681-2.376-13.294-3.891-19.456-4.669" fill="#fd6500"/></g><g><path d="M12110.2 19.5c-34.651 0-67.917 13.78-92.419 38.281-24.501 24.502-38.281 57.768-38.281 92.419 0 34.651 13.78 67.917 38.281 92.419 24.502 24.501 57.768 38.281 92.419 38.281 34.651 0 67.917-13.78 92.419-38.281 24.501-24.502 38.281-57.768 38.281-92.419 0-34.651-13.78-67.917-38.281-92.419-24.502-24.501-57.768-38.281-92.419-38.281z" fill="none" stroke="#fd6500" stroke-width="25.781722" stroke-miterlimit="10"/><path d="M12084.871 112.818c-1.955 7.825-3.411 16.234-4.158 24.938-.747 8.703-.747 17.585 0 26.288.747 8.704 2.203 17.113 4.158 24.938 7.296-1.782 14.993-4.218 22.751-7.421 8.375-3.202 16.63-7.611 24.116-12.959 7.487-5.349 14.034-11.465 19.375-17.702-4.006-5.437-9.218-10.752-15.369-15.3-6.152-4.548-13.071-8.156-20.111-10.558l-12.017-7.205c-6.422-2.402-12.784-4.038-18.745-5.019" fill="#fd6500"/></g><g><path d="M12409.2 19.5c-34.651 0-67.917 13.78-92.419 38.281-24.501 24.502-38.281 57.768-38.281 92.419 0 34.651 13.78 67.917 38.281 92.419 24.502 24.501 57.768 38.281 92.419 38.281 34.651 0 67.917-13.78 92.419-38.281 24.501-24.502 38.281-57.768 38.281-92.419 0-34.651-13.78-67.917-38.281-92.419-24.502-24.501-57.768-38.281-92.419-38.281z" fill="none" stroke="#fd6500" stroke-width="26.036579" stroke-miterlimit="10"/><path d="M12384.461 113.597c-1.731 7.726-3.02 15.968-3.681 24.47-.661 8.503-.661 17.163 0 25.666.661 8.502 1.95 16.744 3.681 24.47 7.124-1.977 14.603-4.533 22.135-7.767 8.08-3.234 16.052-7.536 23.345-12.669 7.293-5.134 13.754-10.947 19.148-16.867-4.045-5.112-9.158-10.116-15.103-14.441-5.944-4.325-12.568-7.819-19.3-10.244l-12.135-7.277c-6.184-2.425-12.314-4.173-18.09-5.341" fill="#fd6500"/></g><g><path d="M12708.2 19.5c-34.651 0-67.917 13.78-92.419 38.281-24.501 24.502-38.281 57.768-38.281 92.419 0 34.651 13.78 67.917 38.281 92.419 24.502 24.501 57.768 38.281 92.419 38.281 34.651 0 67.917-13.78 92.419-38.281 24.501-24.502 38.281-57.768 38.281-92.419 0-34.651-13.78-67.917-38.281-92.419-24.502-24.501-57.768-38.281-92.419-38.281z" fill="none" stroke="#fd6500" stroke-width="26.270874" stroke-miterlimit="10"/><path d="M12684.002 114.314c-1.524 7.633-2.659 15.721-3.241 24.039-.583 8.318-.583 16.776 0 25.094.582 8.318 1.717 16.406 3.241 24.039 6.966-2.155 14.245-4.821 21.571-8.084 7.807-3.263 15.521-7.467 22.635-12.403 7.115-4.936 13.498-10.47 18.939-16.099-4.081-4.813-9.103-9.532-14.857-13.652-5.755-4.12-12.107-7.508-18.554-9.955l-12.244-7.342c-5.966-2.447-11.884-4.298-17.49-5.637" fill="#fd6500"/></g><g><path d="M13007.2 19.5c-34.651 0-67.917 13.78-92.419 38.281-24.501 24.502-38.281 57.768-38.281 92.419 0 34.651 13.78 67.917 38.281 92.419 24.502 24.501 57.768 38.281 92.419 38.281 34.651 0 67.917-13.78 92.419-38.281 24.501-24.502 38.281-57.768 38.281-92.419 0-34.651-13.78-67.917-38.281-92.419-24.502-24.501-57.768-38.281-92.419-38.281z" fill="none" stroke="#fd6500" stroke-width="26.485851" stroke-miterlimit="10"/><path d="M12983.499 114.971c-1.334 7.549-2.328 15.497-2.838 23.645-.51 8.149-.51 16.419 0 24.568.51 8.148 1.504 16.096 2.838 23.645 6.822-2.32 13.916-5.087 21.052-8.377 7.558-3.289 15.034-7.403 21.985-12.157 6.951-4.755 13.261-10.034 18.748-15.395-4.115-4.539-9.054-8.995-14.633-12.927-5.58-3.932-11.684-7.224-17.87-9.691l-12.344-7.402c-5.765-2.467-11.488-4.412-16.938-5.909" fill="#fd6500"/></g><g><path d="M13306.2 19.5c-34.651 0-67.917 13.78-92.419 38.281-24.501 24.502-38.281 57.768-38.281 92.419 0 34.651 13.78 67.917 38.281 92.419 24.502 24.501 57.768 38.281 92.419 38.281 34.651 0 67.917-13.78 92.419-38.281 24.501-24.502 38.281-57.768 38.281-92.419 0-34.651-13.78-67.917-38.281-92.419-24.502-24.501-57.768-38.281-92.419-38.281z" fill="none" stroke="#fd6500" stroke-width="26.682647" stroke-miterlimit="10"/><path d="M13282.954 115.573c-1.161 7.472-2.026 15.29-2.469 23.284-.444 7.993-.444 16.093 0 24.086.443 7.994 1.308 15.812 2.469 23.284 6.689-2.47 13.615-5.329 20.578-8.644 7.329-3.314 14.587-7.345 21.388-11.933 6.802-4.589 13.046-9.633 18.573-14.75-4.145-4.288-9.007-8.504-14.427-12.264s-11.296-6.963-17.244-9.448l-12.436-7.457c-5.58-2.486-11.125-4.517-16.432-6.158" fill="#fd6500"/></g><g><path d="M13605.2 19.5c-34.651 0-67.917 13.78-92.419 38.281-24.501 24.502-38.281 57.768-38.281 92.419 0 34.651 13.78 67.917 38.281 92.419 24.502 24.501 57.768 38.281 92.419 38.281 34.651 0 67.917-13.78 92.419-38.281 24.501-24.502 38.281-57.768 38.281-92.419 0-34.651-13.78-67.917-38.281-92.419-24.502-24.501-57.768-38.281-92.419-38.281z" fill="none" stroke="#fd6500" stroke-width="26.862297" stroke-miterlimit="10"/><path d="M13582.37 116.122c-1.003 7.401-1.75 15.102-2.133 22.954s-.383 15.796 0 23.648 1.13 15.553 2.133 22.954c6.567-2.608 13.34-5.551 20.144-8.888 7.121-3.336 14.179-7.292 20.844-11.729 6.665-4.437 12.849-9.268 18.413-14.161-4.173-4.059-8.965-8.056-14.239-11.659-5.274-3.603-10.942-6.724-16.672-9.226l-12.519-7.508c-5.413-2.502-10.795-4.612-15.971-6.385" fill="#fd6500"/></g><g><path d="M13904.2 19.5c-34.651 0-67.917 13.78-92.419 38.281-24.501 24.502-38.281 57.768-38.281 92.419 0 34.651 13.78 67.917 38.281 92.419 24.502 24.501 57.768 38.281 92.419 38.281 34.651 0 67.917-13.78 92.419-38.281 24.501-24.502 38.281-57.768 38.281-92.419 0-34.651-13.78-67.917-38.281-92.419-24.502-24.501-57.768-38.281-92.419-38.281z" fill="none" stroke="#fd6500" stroke-width="27.025751" stroke-miterlimit="10"/><path d="M13881.748 116.621c-.859 7.338-1.499 14.932-1.827 22.655-.328 7.723-.328 15.525 0 23.248.328 7.723.968 15.317 1.827 22.655 6.457-2.733 13.09-5.754 19.749-9.111 6.932-3.356 13.809-7.243 20.35-11.542 6.541-4.3 12.669-8.936 18.267-13.626-4.198-3.851-8.927-7.648-14.068-11.108-5.141-3.46-10.62-6.508-16.151-9.025l-12.596-7.553c-5.26-2.518-10.494-4.699-15.551-6.593" fill="#fd6500"/></g><g><path d="M14203.2 19.5c-34.651 0-67.917 13.78-92.419 38.281-24.501 24.502-38.281 57.768-38.281 92.419 0 34.651 13.78 67.917 38.281 92.419 24.502 24.501 57.768 38.281 92.419 38.281 34.651 0 67.917-13.78 92.419-38.281 24.501-24.502 38.281-57.768 38.281-92.419 0-34.651-13.78-67.917-38.281-92.419-24.502-24.501-57.768-38.281-92.419-38.281z" fill="none" stroke="#fd6500" stroke-width="27.173882" stroke-miterlimit="10"/><path d="M14181.09 117.074c-.728 7.28-1.271 14.777-1.549 22.383-.278 7.607-.278 15.279 0 22.886.278 7.606.821 15.103 1.549 22.383 6.357-2.846 12.864-5.936 19.393-9.312 6.759-3.375 13.473-7.199 19.901-11.374 6.428-4.174 12.506-8.635 18.135-13.14-4.221-3.662-8.893-7.278-13.913-10.609-5.021-3.33-10.328-6.311-15.68-8.843l-12.665-7.594c-5.122-2.531-10.221-4.777-15.171-6.78" fill="#fd6500"/></g><g><path d="M14502.2 19.5c-34.651 0-67.917 13.78-92.419 38.281-24.501 24.502-38.281 57.768-38.281 92.419 0 34.651 13.78 67.917 38.281 92.419 24.502 24.501 57.768 38.281 92.419 38.281 34.651 0 67.917-13.78 92.419-38.281 24.501-24.502 38.281-57.768 38.281-92.419 0-34.651-13.78-67.917-38.281-92.419-24.502-24.501-57.768-38.281-92.419-38.281z" fill="none" stroke="#fd6500" stroke-width="27.30749" stroke-miterlimit="10"/><path d="M14480.399 117.483c-.611 7.227-1.065 14.636-1.298 22.137-.234 7.502-.234 15.058 0 22.56.233 7.501.687 14.91 1.298 22.137 6.267-2.948 12.659-6.101 19.07-9.493 6.604-3.391 13.17-7.16 19.497-11.222 6.327-4.061 12.36-8.363 18.016-12.702-4.242-3.491-8.861-6.945-13.774-10.159-4.912-3.213-10.064-6.134-15.254-8.678l-12.727-7.631c-4.997-2.544-9.975-4.849-14.828-6.949" fill="#fd6500"/></g><g><path d="M14801.2 19.5c-34.651 0-67.917 13.78-92.419 38.281-24.501 24.502-38.281 57.768-38.281 92.419 0 34.651 13.78 67.917 38.281 92.419 24.502 24.501 57.768 38.281 92.419 38.281 34.651 0 67.917-13.78 92.419-38.281 24.501-24.502 38.281-57.768 38.281-92.419 0-34.651-13.78-67.917-38.281-92.419-24.502-24.501-57.768-38.281-92.419-38.281z" fill="none" stroke="#fd6500" stroke-width="27.427316" stroke-miterlimit="10"/><path d="M14779.676 117.849c-.505 7.18-.881 14.511-1.074 21.918-.192 7.407-.192 14.859 0 22.266.193 7.407.569 14.738 1.074 21.918 6.186-3.04 12.476-6.249 18.781-9.656 6.465-3.406 12.899-7.125 19.134-11.085 6.236-3.961 12.229-8.12 17.91-12.31-4.261-3.339-8.834-6.646-13.649-9.755-4.815-3.109-9.828-5.975-14.873-8.53l-12.783-7.665c-4.885-2.555-9.754-4.913-14.52-7.101" fill="#fd6500"/></g><g><path d="M15100.2 19.5c-34.651 0-67.917 13.78-92.419 38.281-24.501 24.502-38.281 57.768-38.281 92.419 0 34.651 13.78 67.917 38.281 92.419 24.502 24.501 57.768 38.281 92.419 38.281 34.651 0 67.917-13.78 92.419-38.281 24.501-24.502 38.281-57.768 38.281-92.419 0-34.651-13.78-67.917-38.281-92.419-24.502-24.501-57.768-38.281-92.419-38.281z" fill="none" stroke="#fd6500" stroke-width="27.534042" stroke-miterlimit="10"/><path d="M15078.923 118.175c-.411 7.139-.717 14.4-.874 21.722-.157 7.323-.157 14.683 0 22.006.157 7.322.463 14.583.874 21.722 6.114-3.122 12.312-6.381 18.524-9.801 6.341-3.42 12.656-7.093 18.81-10.964 6.155-3.871 12.112-7.903 17.815-11.96-4.277-3.202-8.809-6.379-13.537-9.395-4.728-3.016-9.618-5.834-14.533-8.399l-12.833-7.695c-4.785-2.565-9.558-4.969-14.246-7.236" fill="#fd6500"/></g><g><path d="M15399.2 19.5c-34.651 0-67.917 13.78-92.419 38.281-24.501 24.502-38.281 57.768-38.281 92.419 0 34.651 13.78 67.917 38.281 92.419 24.502 24.501 57.768 38.281 92.419 38.281 34.651 0 67.917-13.78 92.419-38.281 24.501-24.502 38.281-57.768 38.281-92.419 0-34.651-13.78-67.917-38.281-92.419-24.502-24.501-57.768-38.281-92.419-38.281z" fill="none" stroke="#fd6500" stroke-width="27.628299" stroke-miterlimit="10"/><path d="M15378.141 118.464c-.328 7.101-.572 14.3-.697 21.548-.125 7.249-.125 14.527 0 21.776.125 7.248.369 14.447.697 21.548 6.05-3.193 12.168-6.496 18.296-9.928 6.232-3.432 12.443-7.066 18.526-10.857 6.082-3.791 12.007-7.711 17.73-11.651-4.292-3.082-8.786-6.144-13.438-9.078-4.652-2.933-9.433-5.709-14.233-8.282l-12.877-7.722c-4.697-2.573-9.384-5.019-14.004-7.354" fill="#fd6500"/></g><g><path d="M15698.2 19.5c-34.651 0-67.917 13.78-92.419 38.281-24.501 24.502-38.281 57.768-38.281 92.419 0 34.651 13.78 67.917 38.281 92.419 24.502 24.501 57.768 38.281 92.419 38.281 34.651 0 67.917-13.78 92.419-38.281 24.501-24.502 38.281-57.768 38.281-92.419 0-34.651-13.78-67.917-38.281-92.419-24.502-24.501-57.768-38.281-92.419-38.281z" fill="none" stroke="#fd6500" stroke-width="27.710673" stroke-miterlimit="10"/><path d="M15677.331 118.715c-.255 7.069-.445 14.215-.542 21.398-.098 7.184-.098 14.39 0 21.574.097 7.183.287 14.329.542 21.398 5.995-3.257 12.043-6.599 18.098-10.041 6.136-3.442 12.256-7.041 18.276-10.763 6.02-3.721 11.917-7.543 17.657-11.381-4.305-2.977-8.767-5.939-13.352-8.8-4.585-2.861-9.27-5.6-13.971-8.181l-12.915-7.745c-4.62-2.581-9.233-5.062-13.793-7.459" fill="#fd6500"/></g><g><path d="M15997.2 19.5c-34.651 0-67.917 13.78-92.419 38.281-24.501 24.502-38.281 57.768-38.281 92.419 0 34.651 13.78 67.917 38.281 92.419 24.502 24.501 57.768 38.281 92.419 38.281 34.651 0 67.917-13.78 92.419-38.281 24.501-24.502 38.281-57.768 38.281-92.419 0-34.651-13.78-67.917-38.281-92.419-24.502-24.501-57.768-38.281-92.419-38.281z" fill="none" stroke="#fd6500" stroke-width="27.781708" stroke-miterlimit="10"/><path d="M15976.495 118.933c-.192 7.041-.335 14.139-.409 21.267-.073 7.127-.073 14.273 0 21.4.074 7.128.217 14.226.409 21.267 5.948-3.31 11.934-6.686 17.927-10.136 6.053-3.451 12.095-7.021 18.061-10.682 5.966-3.662 11.839-7.4 17.594-11.149-4.316-2.887-8.751-5.761-13.278-8.561-4.527-2.799-9.13-5.506-13.745-8.094l-12.948-7.764c-4.554-2.588-9.102-5.1-13.611-7.548" fill="#fd6500"/></g><g><path d="M16296.2 19.5c-34.651 0-67.917 13.78-92.419 38.281-24.501 24.502-38.281 57.768-38.281 92.419 0 34.651 13.78 67.917 38.281 92.419 24.502 24.501 57.768 38.281 92.419 38.281 34.651 0 67.917-13.78 92.419-38.281 24.501-24.502 38.281-57.768 38.281-92.419 0-34.651-13.78-67.917-38.281-92.419-24.502-24.501-57.768-38.281-92.419-38.281z" fill="none" stroke="#fd6500" stroke-width="27.84191" stroke-miterlimit="10"/><path d="M16275.635 119.117c-.14 7.017-.244 14.076-.297 21.156-.053 7.081-.053 14.173 0 21.254.053 7.08.157 14.139.297 21.156 5.906-3.357 11.841-6.76 17.781-10.218 5.983-3.458 11.958-7.003 17.878-10.614 5.921-3.611 11.774-7.277 17.541-10.951-4.325-2.81-8.737-5.611-13.215-8.358-4.478-2.746-9.012-5.426-13.553-8.019l-12.977-7.781c-4.497-2.594-8.991-5.133-13.455-7.625" fill="#fd6500"/></g><g><path d="M16595.2 19.5c-34.651 0-67.917 13.78-92.419 38.281-24.501 24.502-38.281 57.768-38.281 92.419 0 34.651 13.78 67.917 38.281 92.419 24.502 24.501 57.768 38.281 92.419 38.281 34.651 0 67.917-13.78 92.419-38.281 24.501-24.502 38.281-57.768 38.281-92.419 0-34.651-13.78-67.917-38.281-92.419-24.502-24.501-57.768-38.281-92.419-38.281z" fill="none" stroke="#fd6500" stroke-width="27.891751" stroke-miterlimit="10"/><path d="M16574.75 119.269c-.096 6.998-.167 14.025-.203 21.065-.037 7.041-.037 14.091 0 21.132.036 7.04.107 14.067.203 21.065 5.873-3.395 11.765-6.822 17.661-10.286 5.926-3.465 11.845-6.988 17.728-10.557 5.882-3.569 11.718-7.176 17.496-10.788-4.333-2.746-8.725-5.487-13.163-8.19-4.438-2.703-8.914-5.36-13.395-7.958l-12.999-7.795c-4.451-2.598-8.9-5.159-13.328-7.688" fill="#fd6500"/></g><g><path d="M16894.2 19.5c-34.651 0-67.917 13.78-92.419 38.281-24.501 24.502-38.281 57.768-38.281 92.419 0 34.651 13.78 67.917 38.281 92.419 24.502 24.501 57.768 38.281 92.419 38.281 34.651 0 67.917-13.78 92.419-38.281 24.501-24.502 38.281-57.768 38.281-92.419 0-34.651-13.78-67.917-38.281-92.419-24.502-24.501-57.768-38.281-92.419-38.281z" fill="none" stroke="#fd6500" stroke-width="27.931672" stroke-miterlimit="10"/><path d="M16873.842 119.391c-.06 6.982-.105 13.983-.128 20.992-.023 7.01-.023 14.024 0 21.034.023 7.009.068 14.01.128 20.992 5.846-3.426 11.705-6.871 17.565-10.341 5.879-3.469 11.755-6.975 17.607-10.511 5.852-3.535 11.675-7.094 17.461-10.657-4.34-2.695-8.716-5.387-13.122-8.055-4.405-2.668-8.835-5.307-13.267-7.909l-13.019-7.806c-4.413-2.602-8.825-5.181-13.225-7.739" fill="#fd6500"/></g><g><path d="M17193.2 19.5c-34.651 0-67.917 13.78-92.419 38.281-24.501 24.502-38.281 57.768-38.281 92.419 0 34.651 13.78 67.917 38.281 92.419 24.502 24.501 57.768 38.281 92.419 38.281 34.651 0 67.917-13.78 92.419-38.281 24.501-24.502 38.281-57.768 38.281-92.419 0-34.651-13.78-67.917-38.281-92.419-24.502-24.501-57.768-38.281-92.419-38.281z" fill="none" stroke="#fd6500" stroke-width="27.962083" stroke-miterlimit="10"/><path d="M17172.912 119.484c-.033 6.971-.058 13.951-.071 20.936-.013 6.986-.013 13.974 0 20.96.013 6.985.038 13.965.071 20.936 5.826-3.449 11.658-6.909 17.492-10.382 5.844-3.473 11.686-6.967 17.515-10.476 5.828-3.51 11.641-7.033 17.433-10.558-4.344-2.657-8.709-5.311-13.089-7.953-4.381-2.641-8.775-5.267-13.171-7.871l-13.032-7.815c-4.386-2.605-8.77-5.196-13.148-7.777" fill="#fd6500"/></g><g><path d="M17492.2 19.5c-34.651 0-67.917 13.78-92.419 38.281-24.501 24.502-38.281 57.768-38.281 92.419 0 34.651 13.78 67.917 38.281 92.419 24.502 24.501 57.768 38.281 92.419 38.281 34.651 0 67.917-13.78 92.419-38.281 24.501-24.502 38.281-57.768 38.281-92.419 0-34.651-13.78-67.917-38.281-92.419-24.502-24.501-57.768-38.281-92.419-38.281z" fill="none" stroke="#fd6500" stroke-width="27.983371" stroke-miterlimit="10"/><path d="M17471.962 119.549c-.015 6.962-.026 13.929-.032 20.897-.005 6.969-.005 13.939 0 20.908.006 6.968.017 13.935.032 20.897 5.811-3.465 11.625-6.935 17.44-10.411 5.819-3.476 11.637-6.96 17.45-10.452 5.813-3.492 11.618-6.99 17.415-10.488-4.348-2.63-8.704-5.258-13.068-7.881-4.363-2.623-8.732-5.239-13.103-7.846l-13.042-7.82c-4.365-2.607-8.73-5.208-13.092-7.804" fill="#fd6500"/></g><g><path d="M17791.2 19.5c-34.651 0-67.917 13.78-92.419 38.281-24.501 24.502-38.281 57.768-38.281 92.419 0 34.651 13.78 67.917 38.281 92.419 24.502 24.501 57.768 38.281 92.419 38.281 34.651 0 67.917-13.78 92.419-38.281 24.501-24.502 38.281-57.768 38.281-92.419 0-34.651-13.78-67.917-38.281-92.419-24.502-24.501-57.768-38.281-92.419-38.281z" fill="none" stroke="#fd6500" stroke-width="27.995897" stroke-miterlimit="10"/><path d="M17770.991 119.587c-.004 6.958-.007 13.916-.008 20.875-.002 6.958-.002 13.918 0 20.876.001 6.959.004 13.917.008 20.875 5.802-3.475 11.606-6.951 17.409-10.428 5.805-3.477 11.61-6.957 17.413-10.438 5.803-3.481 11.604-6.964 17.403-10.447-4.349-2.614-8.7-5.227-13.054-7.839-4.353-2.612-8.708-5.222-13.063-7.83l-13.048-7.824c-4.354-2.608-8.708-5.214-13.06-7.82" fill="#fd6500"/></g><g><path d="M18090.2 19.5c-34.651 0-67.917 13.78-92.419 38.281-24.501 24.502-38.281 57.768-38.281 92.419 0 34.651 13.78 67.917 38.281 92.419 24.502 24.501 57.768 38.281 92.419 38.281 34.651 0 67.917-13.78 92.419-38.281 24.501-24.502 38.281-57.768 38.281-92.419 0-34.651-13.78-67.917-38.281-92.419-24.502-24.501-57.768-38.281-92.419-38.281z" fill="none" stroke="#fd6500" stroke-width="28" stroke-miterlimit="10"/><path d="M18070 119.6V182.2c5.8-3.478 11.6-6.956 17.4-10.433l17.4-10.434c5.8-3.477 11.6-6.955 17.4-10.433-4.35-2.608-8.7-5.217-13.05-7.825-4.35-2.608-8.7-5.217-13.05-7.825l-13.05-7.825c-4.35-2.608-8.7-5.217-13.05-7.825" fill="#fd6500"/></g></svg>