<?xml version="1.0" encoding="utf-8"?>
<!-- Generator: Adobe Illustrator 23.0.0, SVG Export Plug-In . SVG Version: 6.00 Build 0)  -->
<svg version="1.1" id="Layer_1" xmlns="http://www.w3.org/2000/svg" xmlns:xlink="http://www.w3.org/1999/xlink" x="0px" y="0px"
	 viewBox="0 0 105.7 85.2" style="enable-background:new 0 0 105.7 85.2;" xml:space="preserve">
<g fill="#f3e2b1">
	<g>
		<path d="M5.6,9.4l4.2-4.5L7,20.9H1.8l0.7-16h49.3l0.7,16h-5.2l-2.8-16l4.2,4.5H5.6z M28.1,59.9l12.6,1.3V65H13.5v-3.7l12.6-1.3
			H28.1z M22.9,32.7c0-9.3,0-18.6-0.3-27.9h9c-0.3,9.1-0.3,18.4-0.3,27.9v4.4c0,9.3,0,18.6,0.3,27.9h-9c0.3-9.1,0.3-18.4,0.3-27.9
			V32.7z"/>
	</g>
	<g>
		<path d="M93.2,24.4H81.7c-13.9,0-21.5,9.5-21.5,25.8c0,16.9,7.6,26,20.8,26h12.3v4.2H79.4c-17.2,0-29-10.6-29-30.1
			c0-19.4,13.3-30,30.8-30h12V24.4z M97.4,52.5c0,9.3,0,18.6,0.3,27.9h-9C89,71.3,89,61.9,89,52.5v-3.4c0-10.3,0-19.6-0.3-28.9h9
			c-0.3,9.1-0.3,18.4-0.3,28.9V52.5z M93.2,25.2v-5h12.7v3.7l-11.8,1.3H93.2z M105.9,76.7v3.7H93.2v-5h0.9L105.9,76.7z"/>
	</g>
</g>
</svg>
